<svg xmlns="http://www.w3.org/2000/svg" contentScriptType="text/ecmascript" width="375" viewBox="0 0 375 375" height="375" version="1.0"><path stroke-linecap="round" transform="matrix(.74763 0 0 .74797 46.728 .396)" fill="none" stroke-linejoin="round" d="M 10.003034 78.591105 L 128.80609 147.225115 L 247.603921 78.591105" stroke="#FFF" stroke-width="20" stroke-miterlimit="10"/><path stroke-linecap="round" transform="matrix(.74763 0 0 .74797 46.728 .396)" fill="none" stroke-linejoin="round" d="M 10.003034 352.991362 L 247.603921 215.812123" stroke="#FFF" stroke-width="20" stroke-miterlimit="10"/><path stroke-linecap="round" transform="matrix(.74763 0 0 .74797 46.728 .396)" fill="none" stroke-linejoin="round" d="M 128.800865 421.583592 L 366.401753 284.404354" stroke="#FFF" stroke-width="20" stroke-miterlimit="10"/><path stroke-linecap="round" transform="matrix(.74763 0 0 .74797 46.728 .396)" fill="none" stroke-linejoin="round" d="M 128.80609 147.225115 L 128.80609 421.583592" stroke="#FFF" stroke-width="20" stroke-miterlimit="10"/><path stroke-linecap="round" transform="matrix(.74763 0 0 .74797 46.728 .396)" fill="none" stroke-linejoin="round" d="M 247.603921 352.991362 L 247.603921 215.812123 L 128.80609 147.225115 L 10.003034 215.812123 L 10.003034 352.991362 L 128.80609 421.583592 Z M 247.603921 352.991362" stroke="#FFF" stroke-width="20" stroke-miterlimit="10"/><path stroke-linecap="round" transform="matrix(.74763 0 0 .74797 46.728 .396)" fill="none" stroke-linejoin="round" d="M 247.603921 215.770343 L 247.603921 78.591105 L 128.800865 9.998874 L 9.997809 78.591105 L 9.997809 215.770343 L 128.800865 284.357351 Z M 247.603921 215.770343" stroke="#FFF" stroke-width="20" stroke-miterlimit="10"/><path stroke-linecap="round" transform="matrix(.74763 0 0 .74797 46.728 .396)" fill="none" stroke-linejoin="round" d="M 366.406977 421.583592 L 10.003034 215.812123" stroke="#FFF" stroke-width="20" stroke-miterlimit="10"/><path stroke-linecap="round" transform="matrix(.74763 0 0 .74797 46.728 .396)" fill="none" stroke-linejoin="round" d="M 247.603921 215.770343 L 247.603921 490.1706" stroke="#FFF" stroke-width="20" stroke-miterlimit="10"/><path stroke-linecap="round" transform="matrix(.74763 0 0 .74797 46.728 .396)" fill="none" stroke-linejoin="round" d="M 366.406977 421.583592 L 366.406977 284.404354 L 247.603921 215.812123 L 128.80609 284.404354 L 128.80609 421.583592 L 247.603921 490.1706 Z M 366.406977 421.583592" stroke="#FFF" stroke-width="20" stroke-miterlimit="10"/></svg>